G04 MADE WITH FRITZING*
G04 WWW.FRITZING.ORG*
G04 DOUBLE SIDED*
G04 HOLES PLATED*
G04 CONTOUR ON CENTER OF CONTOUR VECTOR*
%ASAXBY*%
%FSLAX23Y23*%
%MOIN*%
%OFA0B0*%
%SFA1.0B1.0*%
%ADD10C,0.070000*%
%ADD11C,0.048000*%
%ADD12C,0.068000*%
%ADD13C,0.092000*%
%ADD14C,0.074000*%
%ADD15C,0.078000*%
%ADD16C,0.075000*%
%ADD17C,0.039370*%
%ADD18C,0.059200*%
%ADD19R,0.070000X0.069972*%
%ADD20R,0.092000X0.092000*%
%ADD21R,0.059200X0.059200*%
%ADD22C,0.024000*%
%LNCOPPER1*%
G90*
G70*
G54D10*
X209Y233D03*
X309Y233D03*
X409Y233D03*
X509Y233D03*
X609Y233D03*
X709Y233D03*
X809Y233D03*
X909Y233D03*
X1009Y233D03*
X1109Y233D03*
X1209Y233D03*
X1309Y233D03*
X1409Y233D03*
X1509Y233D03*
X1609Y233D03*
X209Y833D03*
X309Y833D03*
X409Y833D03*
X509Y833D03*
X609Y833D03*
X709Y833D03*
X809Y833D03*
X909Y833D03*
X1009Y833D03*
X1109Y833D03*
X1209Y833D03*
X1309Y833D03*
X1409Y833D03*
X1509Y833D03*
X1609Y833D03*
G54D11*
X808Y89D03*
X728Y89D03*
X648Y89D03*
X568Y89D03*
X889Y89D03*
X809Y89D03*
G54D12*
X309Y1233D03*
X409Y1233D03*
X509Y1233D03*
X609Y1233D03*
X609Y1533D03*
X509Y1533D03*
X409Y1533D03*
X309Y1533D03*
X309Y1233D03*
X409Y1233D03*
X509Y1233D03*
X609Y1233D03*
X609Y1533D03*
X509Y1533D03*
X409Y1533D03*
X309Y1533D03*
G54D13*
X409Y89D03*
X109Y89D03*
G54D14*
X1670Y289D03*
X1670Y589D03*
X1670Y289D03*
X1670Y589D03*
X2205Y1055D03*
X2505Y1055D03*
X2205Y1055D03*
X2505Y1055D03*
G54D15*
X109Y1233D03*
X109Y1133D03*
G54D16*
X763Y1605D03*
X1163Y1605D03*
X309Y1133D03*
X709Y1133D03*
G54D15*
X809Y1433D03*
X809Y1333D03*
X109Y1533D03*
X109Y1433D03*
X209Y941D03*
X309Y941D03*
G54D17*
X1309Y333D03*
G54D18*
X1992Y755D03*
X1992Y991D03*
X1992Y913D03*
X1992Y834D03*
G54D17*
X909Y333D03*
X1658Y917D03*
G54D15*
X2139Y232D03*
X2239Y232D03*
G54D19*
X209Y233D03*
G54D20*
X409Y89D03*
G54D21*
X1992Y755D03*
G54D22*
X800Y217D02*
X734Y99D01*
D02*
X899Y218D02*
X815Y98D01*
D02*
X998Y219D02*
X896Y97D01*
D02*
X109Y1152D02*
X109Y1214D01*
D02*
X926Y1027D02*
X1037Y1166D01*
D02*
X1304Y1166D02*
X2454Y1159D01*
D02*
X1037Y1166D02*
X1304Y1166D01*
D02*
X309Y1033D02*
X709Y1033D01*
D02*
X709Y1033D02*
X926Y1027D01*
D02*
X2454Y1159D02*
X2497Y1071D01*
D02*
X309Y1116D02*
X309Y1033D01*
D02*
X109Y1452D02*
X109Y1514D01*
D02*
X309Y851D02*
X309Y922D01*
D02*
X209Y851D02*
X209Y922D01*
D02*
X1720Y977D02*
X1976Y991D01*
D02*
X890Y933D02*
X1720Y977D01*
D02*
X328Y941D02*
X890Y933D01*
D02*
X609Y1633D02*
X793Y1499D01*
D02*
X309Y1633D02*
X509Y1632D01*
D02*
X509Y1632D02*
X609Y1633D01*
D02*
X793Y1499D02*
X805Y1452D01*
D02*
X309Y1549D02*
X309Y1633D01*
D02*
X807Y1233D02*
X721Y1145D01*
D02*
X809Y1314D02*
X807Y1233D01*
D02*
X325Y1233D02*
X393Y1233D01*
D02*
X792Y1325D02*
X623Y1240D01*
D02*
X509Y1134D02*
X327Y1133D01*
D02*
X509Y1217D02*
X509Y1134D01*
D02*
X516Y216D02*
X564Y99D01*
D02*
X499Y218D02*
X424Y110D01*
D02*
X1495Y821D02*
X915Y338D01*
D02*
X1315Y338D02*
X1656Y578D01*
D02*
X1622Y245D02*
X1657Y277D01*
D02*
X1592Y750D02*
X1522Y820D01*
D02*
X1978Y907D02*
X1592Y750D01*
D02*
X2098Y796D02*
X2007Y829D01*
D02*
X2121Y517D02*
X2098Y796D01*
D02*
X2238Y423D02*
X2121Y517D01*
D02*
X2239Y251D02*
X2238Y423D01*
D02*
X2005Y303D02*
X1993Y732D01*
D02*
X2122Y241D02*
X2005Y303D01*
D02*
X1654Y910D02*
X1612Y845D01*
D02*
X1612Y845D02*
X1613Y851D01*
G04 End of Copper1*
M02*