G04 MADE WITH FRITZING*
G04 WWW.FRITZING.ORG*
G04 DOUBLE SIDED*
G04 HOLES PLATED*
G04 CONTOUR ON CENTER OF CONTOUR VECTOR*
%ASAXBY*%
%FSLAX23Y23*%
%MOIN*%
%OFA0B0*%
%SFA1.0B1.0*%
%ADD10C,0.070000*%
%ADD11C,0.048000*%
%ADD12C,0.068000*%
%ADD13C,0.092000*%
%ADD14C,0.074000*%
%ADD15C,0.078000*%
%ADD16C,0.075000*%
%ADD17C,0.039370*%
%ADD18C,0.059200*%
%ADD19R,0.070000X0.069972*%
%ADD20R,0.092000X0.092000*%
%ADD21R,0.059200X0.059200*%
%ADD22C,0.024000*%
%ADD23C,0.016000*%
%LNCOPPER0*%
G90*
G70*
G54D10*
X209Y233D03*
X309Y233D03*
X409Y233D03*
X509Y233D03*
X609Y233D03*
X709Y233D03*
X809Y233D03*
X909Y233D03*
X1009Y233D03*
X1109Y233D03*
X1209Y233D03*
X1309Y233D03*
X1409Y233D03*
X1509Y233D03*
X1609Y233D03*
X209Y833D03*
X309Y833D03*
X409Y833D03*
X509Y833D03*
X609Y833D03*
X709Y833D03*
X809Y833D03*
X909Y833D03*
X1009Y833D03*
X1109Y833D03*
X1209Y833D03*
X1309Y833D03*
X1409Y833D03*
X1509Y833D03*
X1609Y833D03*
G54D11*
X808Y89D03*
X728Y89D03*
X648Y89D03*
X568Y89D03*
X889Y89D03*
X809Y89D03*
G54D12*
X309Y1233D03*
X409Y1233D03*
X509Y1233D03*
X609Y1233D03*
X609Y1533D03*
X509Y1533D03*
X409Y1533D03*
X309Y1533D03*
G54D13*
X409Y89D03*
X109Y89D03*
G54D14*
X1670Y289D03*
X1670Y589D03*
X2205Y1055D03*
X2505Y1055D03*
G54D15*
X109Y1233D03*
X109Y1133D03*
G54D16*
X763Y1605D03*
X1163Y1605D03*
X309Y1133D03*
X709Y1133D03*
G54D15*
X809Y1433D03*
X809Y1333D03*
X109Y1533D03*
X109Y1433D03*
X209Y941D03*
X309Y941D03*
G54D17*
X1309Y333D03*
G54D18*
X1992Y755D03*
X1992Y991D03*
X1992Y913D03*
X1992Y834D03*
G54D17*
X909Y333D03*
X1658Y917D03*
G54D15*
X2139Y232D03*
X2239Y232D03*
G54D19*
X209Y233D03*
G54D20*
X409Y89D03*
G54D21*
X1992Y755D03*
G54D22*
X624Y1540D02*
X747Y1597D01*
D02*
X1007Y1334D02*
X1007Y1534D01*
D02*
X1007Y1534D02*
X1147Y1597D01*
D02*
X828Y1333D02*
X1007Y1334D01*
D02*
X209Y1633D02*
X122Y1546D01*
D02*
X409Y1633D02*
X209Y1633D01*
D02*
X409Y1549D02*
X409Y1633D01*
D02*
X820Y1155D02*
X815Y1089D01*
D02*
X753Y1039D02*
X665Y1016D01*
D02*
X128Y1019D02*
X37Y922D01*
D02*
X665Y1016D02*
X128Y1019D01*
D02*
X37Y922D02*
X48Y405D01*
D02*
X48Y405D02*
X898Y433D01*
D02*
X898Y433D02*
X1109Y329D01*
D02*
X608Y1432D02*
X709Y1432D01*
D02*
X1109Y329D02*
X1301Y333D01*
D02*
X815Y1089D02*
X753Y1039D01*
D02*
X709Y1233D02*
X820Y1155D01*
D02*
X709Y1432D02*
X709Y1233D01*
D02*
X609Y1517D02*
X608Y1432D01*
D02*
X509Y1533D02*
X425Y1533D01*
D02*
X128Y1233D02*
X293Y1233D01*
D02*
X115Y277D02*
X110Y115D01*
D02*
X609Y333D02*
X209Y333D01*
D02*
X209Y333D02*
X115Y277D01*
D02*
X696Y246D02*
X609Y333D01*
G54D23*
D02*
X829Y333D02*
X776Y297D01*
D02*
X762Y262D02*
X758Y217D01*
D02*
X758Y217D02*
X738Y189D01*
D02*
X738Y189D02*
X656Y97D01*
D02*
X776Y297D02*
X762Y262D01*
D02*
X901Y333D02*
X829Y333D01*
G54D22*
D02*
X1715Y1061D02*
X1661Y924D01*
D02*
X2188Y1055D02*
X1715Y1061D01*
D02*
X1565Y686D02*
X984Y747D01*
D02*
X984Y747D02*
X921Y819D01*
D02*
X1977Y829D02*
X1565Y686D01*
D02*
X1576Y625D02*
X1970Y748D01*
D02*
X817Y817D02*
X867Y708D01*
D02*
X867Y708D02*
X1576Y625D01*
G04 End of Copper0*
M02*