; NON-PLATED HOLES START AT T1
; THROUGH (PLATED) HOLES START AT T100
M48
INCH
T1C0.086614
T100C0.038000
T101C0.052000
T102C0.035000
T103C0.032000
T104C0.015748
T105C0.022400
T106C0.035433
T107C0.036000
%
T1
X025935Y012384
X011937Y010663
X026224Y005796
T100
X008090Y013330
X003090Y009413
X001090Y012330
X022388Y002318
X021388Y002318
X008090Y014330
X001090Y011330
X002090Y009413
X001090Y014330
X001090Y015330
T101
X004090Y000885
X001090Y000885
T102
X007090Y011330
X011629Y016046
X003090Y011330
X007629Y016046
T103
X006090Y012330
X019923Y009127
X019923Y007552
X003090Y015330
X005090Y012330
X019923Y008339
X004090Y015330
X019923Y009914
X004090Y012330
X005090Y015330
X006090Y015330
X003090Y012330
T104
X016584Y009169
X013090Y003330
X009090Y003330
T105
X006481Y000889
X008090Y000885
X008890Y000885
X007281Y000889
X005681Y000889
X008081Y000889
T106
X025053Y010552
X016701Y002885
X016701Y005885
X022053Y010552
T107
X014090Y008330
X003090Y002330
X006090Y002330
X015090Y008330
X004090Y008330
X012090Y008330
X007090Y002330
X008090Y002330
X005090Y002330
X011090Y002330
X005090Y008330
X010090Y002330
X002090Y008330
X004090Y002330
X016090Y008330
X003090Y008330
X008090Y008330
X016090Y002330
X015090Y002330
X009090Y002330
X006090Y008330
X007090Y008330
X002090Y002330
X009090Y008330
X014090Y002330
X010090Y008330
X011090Y008330
X013090Y002330
X012090Y002330
X013090Y008330
T00
M30
